<svg height='100px' width='100px'  fill="#f8f8f8" xmlns="http://www.w3.org/2000/svg" viewBox="0 0 200 200" x="0px" y="0px"><title>Sans titre - 4</title><path d="M166.77,89.3c-15.1,6.56-54.11,20.41-90.21,7.47A21.45,21.45,0,0,1,63.7,84C71.81,80.83,94,68.76,88.17,33.09a2.83,2.83,0,0,0-5-1.32C77.32,39,68.26,43.55,61.73,45.38c-3.92,1.1-9.67,2.72-13.16,6.29C45.13,47.81,39.1,46.11,35,45c-6.53-1.83-15.59-6.36-21.43-13.61a2.83,2.83,0,0,0-5,1.32c-6.09,37,18.08,48.62,25.32,51.23a98.56,98.56,0,0,0,2.71,14.64c3.59,13.52,11.78,31.77,30.44,45.17l0.06,0L67.49,144c1.71,1.21,3.5,2.39,5.4,3.51,0.06,0,.13.05,0.2,0.08a84.71,84.71,0,0,0,38.44,11.78,106.76,106.76,0,0,0-.37,16.32,2.83,2.83,0,0,0,4.32,2.27c5.55-3.43,15.86-9.81,19.57-20,30.8-15.67,36-21.31,39.5-25.05,0.54-.58,1-1.09,1.5-1.54,2.51-2.31,23.38-31.77,16.23-42.77C187,80.51,171.78,87.12,166.77,89.3Zm5.45,37.95c-0.67.61-1.23,1.22-1.83,1.87-2.86,3.09-7.56,8.16-34,21.83,0-.56,0-1.13,0-1.72-0.06-1.47-.13-2.8-0.19-4a104.86,104.86,0,0,0,15.81-8.4c12.57-8.12,21.52-17.94,25.89-28.39a2.83,2.83,0,0,0-5.23-2.19c-7.57,18.11-28.38,29.1-36.78,32.91-0.12-2.33-.19-4.18-0.13-5.09l0.72-.33c5-2.31,20.37-9.32,29.37-25A2.83,2.83,0,0,0,161,105.9c-8.09,14.09-22.18,20.54-26.81,22.66a10.21,10.21,0,0,0-2.37,1.27c-1.94,1.64-1.84,3.54-1.42,11.53,0.11,2.15.25,4.82,0.4,8.11,0.43,9.8-7.54,16.63-14.07,21-0.15-22.31,6.52-29.56,6.7-29.75a2.83,2.83,0,0,0-3.95-4.07c-0.27.26-2.74,2.74-4.93,8.85a53.91,53.91,0,0,0-2.16,8.25,79.56,79.56,0,0,1-41.74-14.48c-35-24.89-31.49-68.9-31.44-69.49a2.83,2.83,0,1,0-5.64-.52,67.93,67.93,0,0,0-.08,8.37,34.16,34.16,0,0,1-10-6.8c-7.69-7.57-11-18.12-10-31.42a52.4,52.4,0,0,0,20,11c6.85,1.92,11.5,3.91,12,7.43a2.8,2.8,0,0,0,.2.7,2.83,2.83,0,0,0,5.55-.29c0.49-3.51,5.15-5.51,12-7.42a52.41,52.41,0,0,0,20-11c2.58,32.79-22.62,39.32-23.74,39.6a2.83,2.83,0,0,0-2.13,3.3C57.53,83.31,60.36,97,74.65,102.1c15.73,5.64,48.9,12.14,94.38-7.61,14.69-6.38,17.88-3.73,18.5-2.76C191.84,98.36,175.46,124.27,172.22,127.24Z"></path><path d="M145.09,105.4a6.29,6.29,0,0,0-9,7.33,2.83,2.83,0,1,0,5.43-1.62,0.63,0.63,0,0,1,.42-0.78,0.63,0.63,0,0,1,.78.42,2.83,2.83,0,1,0,5.43-1.62A6.25,6.25,0,0,0,145.09,105.4Z"></path></svg>