<svg height='100px' width='100px'  fill="#f8f8f8" xmlns="http://www.w3.org/2000/svg" xmlns:xlink="http://www.w3.org/1999/xlink" xml:space="preserve" version="1.1" style="shape-rendering:geometricPrecision;text-rendering:geometricPrecision;image-rendering:optimizeQuality;" viewBox="0 0 472 301" x="0px" y="0px" fill-rule="evenodd" clip-rule="evenodd"><defs><style type="text/css">
   
    .fil0 {fill:#f8f8f8;fill-rule:nonzero}
   
  </style></defs><g><path class="fil0" d="M74 154c10,-49 54,-85 104,-85 50,0 94,36 103,85 41,0 75,33 75,74 0,40 -33,73 -74,73l-208 0c-41,0 -74,-33 -74,-73 0,-41 34,-74 74,-74zm16 10c0,5 -5,8 -9,8 -34,-5 -64,22 -64,56 0,31 25,56 57,56l208 0c31,0 57,-25 57,-56 0,-34 -30,-61 -63,-57 -5,1 -10,-2 -10,-7 -6,-44 -43,-78 -88,-78 -45,0 -83,34 -88,78z"></path><path class="fil0" d="M241 68c-1,5 -6,7 -11,5 -4,-1 -6,-6 -5,-10 13,-38 49,-63 89,-63 44,0 83,31 92,75 36,0 66,30 66,66 0,36 -30,66 -66,66l-38 0c-5,0 -9,-4 -9,-9 0,-4 4,-8 9,-8l38 0c27,0 49,-22 49,-49 0,-29 -26,-52 -55,-49 -5,1 -9,-2 -10,-7 -4,-39 -37,-68 -76,-68 -33,0 -62,20 -73,51z"></path></g></svg>