<svg height='100px' width='100px'  fill="#f8f8f8" xmlns="http://www.w3.org/2000/svg" xmlns:xlink="http://www.w3.org/1999/xlink" version="1.1" x="0px" y="0px" viewBox="0 0 512 512" style="enable-background:new 0 0 512 512;" xml:space="preserve"><path d="M469.034,34.691c0.149-1.167-0.083-2.324-0.632-3.404c-0.054-0.106-0.002-0.231-0.063-0.335  c-0.063-0.108-0.2-0.123-0.268-0.225c-0.163-0.247-0.241-0.529-0.444-0.756c-0.635-0.706-1.41-1.169-2.231-1.499  c-0.132-0.053-0.255-0.056-0.391-0.099c-1.208-0.391-2.495-0.473-3.707-0.066c-0.005,0.002-0.011-0.002-0.016,0  c-0.001,0-0.011,0.005-0.012,0.005c-0.01,0.004-0.019,0.007-0.029,0.01c-1.219,0.416-68.819,23.921-145.5,75.438  c-0.572,0.281-1.088,0.603-1.531,1.034c-30.243,20.435-61.787,45.079-91.236,74.577c-0.283,0.283-0.422,0.64-0.635,0.96  C83.206,87.715,71.497,32.783,71.403,32.304c-0.005-0.035-0.042-0.054-0.048-0.088c-0.228-1.256-0.869-2.292-1.717-3.122  c-0.114-0.113-0.184-0.234-0.307-0.337c-0.885-0.741-1.975-1.156-3.178-1.287c-0.133-0.015-0.219-0.137-0.353-0.144  c-0.272-0.028-0.529,0.062-0.797,0.078c-0.121,0.009-0.23-0.036-0.352-0.02c-0.075,0.011-0.132,0.061-0.206,0.074  c-0.625,0.108-1.208,0.321-1.764,0.639c-0.115,0.064-0.236,0.106-0.346,0.177c-0.48,0.318-0.888,0.714-1.266,1.159  c-0.115,0.134-0.262,0.235-0.364,0.38c-0.42,0.59-0.751,1.246-0.938,1.961c0,0.001-0.005,0.015-0.005,0.016  c-0.001,0,0,0.002,0,0.002c-0.461,1.77-37.83,149.586,0.259,302.254C96.237,479.222,268.145,484.68,293.415,484.68  c1.89,0,2.958-0.036,3.096-0.036c0.087-0.004,0.147-0.081,0.233-0.088c1.044-0.08,2.026-0.471,2.917-1.098  c0.174-0.123,0.346-0.195,0.506-0.336c0.104-0.09,0.235-0.124,0.333-0.222c0.73-0.729,1.148-1.615,1.42-2.54  c0.028-0.094,0.126-0.141,0.15-0.236c4.541-18.288,7.629-35.596,9.616-52.062c81.748-36.744,112.861-120.261,114.505-181.311  c4.593-171.226,40.293-207.694,40.92-208.318c0.004-0.004,0.054-0.05,0.056-0.053c0.973-0.872,1.487-2.013,1.742-3.201  C468.948,35.005,469.012,34.868,469.034,34.691z M418.442,176.029l-65.337,11.381c29.787-53.545,63.396-95.213,86.434-120.672  C431.712,88.941,423.44,123.467,418.442,176.029z M310.475,249.325l-29.299-84.753c-1.076-3.103-4.441-4.775-7.573-3.678  c-3.103,1.076-4.753,4.462-3.678,7.573l33.047,95.609c0.258,0.744,0.848,1.219,1.339,1.782c-2.343,6.546-4.512,13.214-6.616,19.959  c-19.513-53.71-50.977-85.43-66.047-98.267c26.834-26.845,55.45-49.645,83.151-68.812l20.893,75.685  C326.638,211.659,318.127,230.019,310.475,249.325z M325.193,111.622c45.645-30.356,87.645-50.459,113.49-61.544  c-22.928,24.394-61.158,69.599-94.757,129.407L325.193,111.622z M216.506,190.759c0.007,0.007,0.015,0.015,0.022,0.015  c1.223,0.806,119.69,81.584,76.398,275.867c-23.023-23.742-43.766-48.331-62.417-73.229l4.995-104.085  c0.16-3.285-2.377-6.076-5.662-6.229c-3.016-0.225-6.069,2.369-6.229,5.662l-4.29,89.392c-19.469-27.313-36.488-54.793-51.37-81.717  l13.993-90.167c0.501-3.249-1.723-6.294-4.971-6.803c-3.22-0.436-6.294,1.73-6.803,4.971l-11.577,74.62  c-44.598-85.083-67.862-162.429-78.781-207.011C99.689,98.893,138.928,139.222,216.506,190.759z M71.577,331.167  C44.008,220.673,56.752,112.779,65.484,63.144c9.808,43.016,33.76,129.021,84.039,224.173l-61.186-29.992  c-2.973-1.417-6.512-0.225-7.973,2.733c-1.446,2.951-0.225,6.519,2.733,7.966l75.695,37.095c0.145,0.071,0.313,0.048,0.462,0.106  c14.317,25.675,30.572,51.816,48.992,77.831l-80.256-33.61c-2.987-1.236-6.505,0.16-7.791,3.198  c-1.265,3.031,0.16,6.519,3.198,7.791l98.424,41.215c18.078,24.054,38.088,47.815,60.188,70.816  C237.965,470.477,102.292,454.302,71.577,331.167z M313.079,414.189c2.915-34.884,0.545-65.511-5.068-92.086l54.71-11.271  c3.22-0.661,5.298-3.808,4.63-7.028c-0.654-3.227-3.881-5.356-7.028-4.63l-55.024,11.336c-0.412-1.602-0.78-3.263-1.215-4.834  c3.661-13.432,8.004-26.364,12.635-39.037l79.529-15.223c3.227-0.618,5.349-3.743,4.731-6.97c-0.632-3.234-3.779-5.4-6.97-4.731  l-72.423,13.865c7.356-18.558,15.532-36.204,24.221-52.811l71.536-12.462c-1.413,17.493-2.484,36.746-3.057,58.123  C412.781,302.404,385.094,378.305,313.079,414.189z"></path></svg>