<svg height='100px' width='100px'  fill="#f8f8f8" xmlns="http://www.w3.org/2000/svg" xmlns:xlink="http://www.w3.org/1999/xlink" version="1.1" x="0px" y="0px" viewBox="0 0 100 100" style="enable-background:new 0 0 100 100;" xml:space="preserve"><g><path d="M77.678,47.454h2.152c4.828,0,8.779-3.95,8.779-8.779v-4.359c0-4.828-3.95-8.779-8.779-8.779h-2.152   c-4.828,0-8.779,3.95-8.779,8.779v4.359C68.899,43.503,72.85,47.454,77.678,47.454z M72.722,34.316   c0-2.733,2.223-4.956,4.956-4.956h2.152c2.733,0,4.956,2.223,4.956,4.956v4.359c0,2.733-2.223,4.956-4.956,4.956h-2.152   c-2.733,0-4.956-2.223-4.956-4.956V34.316z"></path><path d="M8.823,67.654c0-4.182,3.402-7.585,7.585-7.585h9.677c4.182,0,7.585,3.402,7.585,7.585v16.19h0.084h3.823V54.353   c0-4.182,3.402-7.585,7.585-7.585h9.677c4.182,0,7.585,3.402,7.585,7.585v29.492h3.823V83.59h0.084V65.567   c0-4.182,3.402-7.585,7.585-7.585h9.677c4.182,0,7.585,3.402,7.585,7.585V83.59H95V65.567c0-6.274-5.133-11.408-11.408-11.408   h-9.677c-2.95,0-5.638,1.144-7.669,2.998v-2.805c0-6.274-5.133-11.408-11.408-11.408h-9.677c-6.274,0-11.408,5.133-11.408,11.408   v4.893c-2.031-1.854-4.719-2.998-7.669-2.998h-9.677C10.133,56.247,5,61.38,5,67.654v18.023h3.823V67.654z"></path><path d="M20.17,49.541h2.152c4.828,0,8.779-3.95,8.779-8.779v-4.359c0-4.828-3.95-8.779-8.779-8.779H20.17   c-4.828,0-8.779,3.951-8.779,8.779v4.359C11.391,45.591,15.342,49.541,20.17,49.541z M15.214,36.403   c0-2.733,2.223-4.956,4.956-4.956h2.152c2.733,0,4.956,2.223,4.956,4.956v4.359c0,2.733-2.223,4.956-4.956,4.956H20.17   c-2.733,0-4.956-2.223-4.956-4.956V36.403z"></path><path d="M48.924,36.239h2.152c4.828,0,8.779-3.951,8.779-8.779v-4.359c0-4.828-3.95-8.779-8.779-8.779h-2.152   c-4.828,0-8.779,3.95-8.779,8.779v4.359C40.145,32.289,44.096,36.239,48.924,36.239z M43.968,23.101   c0-2.733,2.223-4.956,4.956-4.956h2.152c2.733,0,4.956,2.223,4.956,4.956v4.359c0,2.733-2.223,4.956-4.956,4.956h-2.152   c-2.733,0-4.956-2.223-4.956-4.956V23.101z"></path></g></svg>