<svg height='100px' width='100px'  fill="#f8f8f8" xmlns="http://www.w3.org/2000/svg" xmlns:xlink="http://www.w3.org/1999/xlink" version="1.1" x="0px" y="0px" viewBox="0 0 100 100" style="enable-background:new 0 0 100 100;" xml:space="preserve"><g><path d="M73.9,47.5L53,14.1c-0.6-1-1.8-1.6-3-1.6s-2.3,0.6-3,1.6L26.1,47.5c0,0,0,0.1-0.1,0.1c-4.7,8-4.6,17.8,0.1,26   c4.9,8.6,14.1,13.9,23.8,13.9s18.9-5.3,23.8-13.9c4.7-8.2,4.8-17.9,0.1-26C73.9,47.6,73.9,47.6,73.9,47.5z M67.8,70.1   C64.1,76.5,57.3,80.5,50,80.5s-14.1-4-17.8-10.4c-3.5-6-3.5-13.1-0.2-18.9L50,22.6l17.9,28.6C71.3,57,71.2,64.1,67.8,70.1z"></path><path d="M60,60.1c0,5.2-3.8,9.9-9,9.9h-4v7h4c9.1,0,16-7.8,16-16.9V57h-7V60.1z"></path></g></svg>