<svg height='100px' width='100px'  fill="#f8f8f8" xmlns="http://www.w3.org/2000/svg" xmlns:xlink="http://www.w3.org/1999/xlink" version="1.1" x="0px" y="0px" viewBox="0 0 100 100" enable-background="new 0 0 100 100" xml:space="preserve"><g><rect x="36.333" y="31.823" fill="#f8f8f8" width="7.75" height="2.835"></rect><rect x="40.333" y="37.37" fill="#f8f8f8" width="3.75" height="2.835"></rect><rect x="36.333" y="42.916" fill="#f8f8f8" width="7.75" height="2.835"></rect><rect x="40.333" y="48.462" fill="#f8f8f8" width="3.75" height="2.834"></rect><rect x="36.333" y="54.01" fill="#f8f8f8" width="7.75" height="2.834"></rect><path fill="#f8f8f8" d="M56.989,65.584c1.413,0,2.078,0.665,2.999,1.585c1.076,1.076,2.415,2.415,5.003,2.415   c2.587,0,3.926-1.339,5.002-2.415c0.92-0.92,1.585-1.585,2.998-1.585c1.414,0,2.079,0.665,3,1.585   c1.076,1.076,2.416,2.415,5.005,2.415s3.929-1.339,5.005-2.415c0.921-0.92,1.586-1.585,3-1.585c0.783,0,1.417-0.634,1.417-1.417   s-0.634-1.417-1.417-1.417c-2.588,0-3.928,1.339-5.004,2.414c-0.921,0.921-1.586,1.586-3.001,1.586s-2.08-0.665-3.001-1.586   c-1.076-1.075-2.416-2.414-5.004-2.414c-2.587,0-3.926,1.339-5.002,2.415c-0.92,0.92-1.585,1.585-2.998,1.585   s-2.078-0.665-2.999-1.585c-1.076-1.076-2.415-2.415-5.003-2.415c-0.783,0-1.417,0.634-1.417,1.417S56.206,65.584,56.989,65.584z"></path><path fill="#f8f8f8" d="M9,65.584c1.413,0,2.078,0.665,2.998,1.585c1.076,1.076,2.415,2.415,5.002,2.415s3.925-1.339,5.001-2.415   c0.919-0.92,1.584-1.585,2.997-1.585c1.413,0,2.077,0.665,2.997,1.585c1.076,1.076,2.415,2.415,5,2.415   c2.586,0,3.925-1.339,5.001-2.415c0.919-0.92,1.584-1.585,2.996-1.585c0.783,0,1.417-0.634,1.417-1.417s-0.635-1.417-1.417-1.417   c-2.586,0-3.925,1.339-5.001,2.415c-0.919,0.92-1.584,1.585-2.996,1.585S30.919,66.085,30,65.165   c-1.076-1.076-2.415-2.415-5.001-2.415s-3.925,1.339-5.001,2.415c-0.919,0.92-1.584,1.585-2.997,1.585   c-1.413,0-2.078-0.665-2.998-1.585C12.926,64.089,11.587,62.75,9,62.75c-0.783,0-1.417,0.634-1.417,1.417S8.217,65.584,9,65.584z"></path><path fill="#f8f8f8" d="M89.001,72.75c-2.588,0-3.928,1.339-5.004,2.414c-0.921,0.921-1.586,1.586-3.001,1.586   s-2.08-0.665-3.001-1.586c-1.076-1.075-2.416-2.414-5.004-2.414c-2.587,0-3.926,1.339-5.002,2.415   c-0.92,0.92-1.585,1.585-2.998,1.585s-2.078-0.665-2.999-1.585c-0.987-0.987-2.208-2.183-4.398-2.376   c-0.365-2.884-2.165-5.376-4.834-6.618V51.496v-2.417V28.367c0-1.981-1.611-3.593-3.591-3.593c-1.981,0-3.592,1.612-3.592,3.593   v20.711v2.417v14.675c-2.663,1.238-4.46,3.721-4.833,6.596c-2.417,0.086-3.713,1.358-4.752,2.398   c-0.919,0.92-1.584,1.585-2.996,1.585S30.919,76.085,30,75.165c-1.076-1.076-2.415-2.415-5.001-2.415s-3.926,1.339-5.001,2.415   c-0.919,0.92-1.584,1.585-2.997,1.585c-1.413,0-2.078-0.665-2.998-1.585C12.926,74.089,11.587,72.75,9,72.75   c-0.783,0-1.417,0.634-1.417,1.417S8.217,75.584,9,75.584c1.413,0,2.078,0.665,2.998,1.585c1.076,1.076,2.415,2.415,5.002,2.415   s3.926-1.339,5.001-2.415c0.919-0.92,1.584-1.585,2.997-1.585c1.413,0,2.077,0.665,2.997,1.585c1.076,1.076,2.415,2.415,5,2.415   c2.586,0,3.925-1.339,5.001-2.415c0.884-0.885,1.54-1.527,2.843-1.575c0.797,3.867,4.228,6.785,8.329,6.785   c4.092,0,7.518-2.907,8.323-6.764c1.083,0.142,1.692,0.75,2.497,1.554c1.076,1.076,2.415,2.415,5.003,2.415   c2.587,0,3.926-1.339,5.002-2.415c0.92-0.92,1.585-1.585,2.998-1.585c1.414,0,2.079,0.665,3,1.585   c1.076,1.076,2.416,2.415,5.005,2.415s3.929-1.339,5.005-2.415c0.921-0.92,1.586-1.585,3-1.585c0.783,0,1.417-0.634,1.417-1.417   S89.784,72.75,89.001,72.75z M46.994,28.367c0-1.2,0.976-2.176,2.175-2.176c1.198,0,2.173,0.976,2.173,2.176v20.711h-4.348V28.367z   "></path><path fill="#f8f8f8" d="M89.001,83.75c-2.588,0-3.928,1.339-5.004,2.414c-0.921,0.921-1.586,1.586-3.001,1.586   s-2.08-0.665-3.001-1.586c-1.076-1.075-2.416-2.414-5.004-2.414c-2.587,0-3.926,1.339-5.002,2.415   c-0.92,0.92-1.585,1.585-2.998,1.585s-2.078-0.665-2.999-1.585c-1.076-1.076-2.415-2.415-5.003-2.415   c-2.587,0-3.927,1.339-5.002,2.415c-0.92,0.92-1.585,1.585-2.997,1.585c-1.413,0-2.077-0.665-2.998-1.585   c-1.076-1.076-2.415-2.415-5-2.415c-2.586,0-3.925,1.339-5.001,2.415c-0.919,0.92-1.584,1.585-2.996,1.585S30.919,87.085,30,86.165   c-1.076-1.076-2.415-2.415-5.001-2.415s-3.925,1.339-5.001,2.415c-0.919,0.92-1.584,1.585-2.997,1.585   c-1.413,0-2.078-0.665-2.998-1.585C12.926,85.089,11.587,83.75,9,83.75c-0.783,0-1.417,0.634-1.417,1.417S8.217,86.584,9,86.584   c1.413,0,2.078,0.665,2.998,1.585c1.076,1.076,2.415,2.415,5.002,2.415s3.926-1.339,5.001-2.415   c0.919-0.92,1.584-1.585,2.997-1.585c1.413,0,2.077,0.665,2.997,1.585c1.076,1.076,2.415,2.415,5,2.415   c2.586,0,3.925-1.339,5.001-2.415c0.919-0.92,1.584-1.585,2.996-1.585s2.076,0.665,2.996,1.585   c1.076,1.076,2.415,2.415,5.002,2.415s3.926-1.339,5.001-2.415c0.92-0.92,1.585-1.585,2.998-1.585s2.078,0.665,2.999,1.585   c1.076,1.076,2.415,2.415,5.003,2.415c2.587,0,3.926-1.339,5.002-2.415c0.92-0.92,1.585-1.585,2.998-1.585   c1.414,0,2.079,0.665,3,1.585c1.076,1.076,2.416,2.415,5.005,2.415s3.929-1.339,5.005-2.415c0.921-0.92,1.586-1.585,3-1.585   c0.783,0,1.417-0.634,1.417-1.417S89.784,83.75,89.001,83.75z"></path></g></svg>