<svg height='100px' width='100px'  fill="#f8f8f8" xmlns="http://www.w3.org/2000/svg" xmlns:xlink="http://www.w3.org/1999/xlink" xml:space="preserve" version="1.1" style="shape-rendering:geometricPrecision;text-rendering:geometricPrecision;image-rendering:optimizeQuality;" viewBox="0 0 0.6 1.528" x="0px" y="0px" fill-rule="evenodd" clip-rule="evenodd"><defs><style type="text/css">
   
    .fil0 {fill:#f8f8f8;fill-rule:nonzero}
   
  </style></defs><g><path class="fil0" d="M0.3 0c0.046,0 0.088,0.019 0.118,0.049 0.03,0.03 0.049,0.072 0.049,0.118l0 0.125 0 0.125 0 0.125 0 0.436c0.038,0.026 0.07,0.06 0.093,0.1 0.025,0.044 0.04,0.095 0.04,0.15 0,0.082 -0.034,0.157 -0.088,0.212l0 0c-0.054,0.054 -0.129,0.088 -0.212,0.088 -0.083,0 -0.158,-0.034 -0.212,-0.088l0 0c-0.054,-0.055 -0.088,-0.13 -0.088,-0.212 0,-0.055 0.015,-0.106 0.04,-0.15l0.001 -0.002c0.023,-0.039 0.055,-0.073 0.092,-0.098l0 -0.811c0,-0.046 0.019,-0.088 0.049,-0.118 0.03,-0.03 0.072,-0.049 0.118,-0.049zm0.1 0.575l-0.067 0c-0.018,0 -0.033,-0.015 -0.033,-0.033 0,-0.019 0.015,-0.034 0.033,-0.034l0.067 0 0 -0.058 -0.067 0c-0.018,0 -0.033,-0.015 -0.033,-0.033 0,-0.019 0.015,-0.034 0.033,-0.034l0.067 0 0 -0.058 -0.067 0c-0.018,0 -0.033,-0.015 -0.033,-0.033 0,-0.019 0.015,-0.034 0.033,-0.034l0.067 0 0 -0.058 -0.067 0c-0.018,0 -0.033,-0.015 -0.033,-0.033 0,-0.019 0.015,-0.034 0.033,-0.034l0.061 0c-0.005,-0.014 -0.013,-0.027 -0.023,-0.037 -0.018,-0.018 -0.043,-0.029 -0.071,-0.029 -0.027,0 -0.052,0.011 -0.071,0.029 -0.018,0.018 -0.029,0.043 -0.029,0.071l0 0.83c0,0.011 -0.006,0.022 -0.017,0.029 -0.035,0.02 -0.064,0.049 -0.084,0.084l-0.001 0.001c-0.02,0.034 -0.031,0.074 -0.031,0.117 0,0.064 0.026,0.123 0.068,0.165l0 0c0.042,0.042 0.101,0.068 0.165,0.068 0.065,0 0.123,-0.026 0.165,-0.068l0 0c0.042,-0.042 0.068,-0.101 0.068,-0.165 0,-0.043 -0.011,-0.083 -0.031,-0.117l0 0c-0.02,-0.035 -0.049,-0.064 -0.083,-0.084 -0.011,-0.006 -0.019,-0.017 -0.019,-0.03l0 -0.422z"></path></g></svg>