<svg height='100px' width='100px'  fill="#f8f8f8" xmlns="http://www.w3.org/2000/svg" xmlns:xlink="http://www.w3.org/1999/xlink" version="1.1" x="0px" y="0px" viewBox="0 0 512 512" enable-background="new 0 0 512 512" xml:space="preserve"><g><g><g><g><g><g><path d="M224,269.2c-0.1,0-0.2,0-0.3,0l-12.4-0.4C99.7,265.2,6,171.5,2.4,60L2,47.5c-0.1-2.3,0.8-4.5,2.4-6.2        c1.6-1.6,3.8-2.6,6.2-2.4L23,39.3c111.6,3.6,205.3,97.3,208.9,208.9l0.4,12.4c0.1,2.3-0.8,4.5-2.4,6.2        C228.3,268.4,226.2,269.2,224,269.2z M19,55.9l0.1,3.5c3.3,102.9,89.8,189.4,192.7,192.7l3.5,0.1l-0.1-3.5        C211.9,145.8,125.4,59.3,22.5,56L19,55.9z"></path></g></g><g><g><path d="M259.1,392.9c-4.2,0-7.9-3.2-8.3-7.5c-4.3-42.6-18.4-84.2-40.9-120.2c-18.7-30.4-43-56.8-72.2-78.4        c-3.7-2.7-4.5-8-1.7-11.7c2.7-3.7,8-4.5,11.7-1.7c31,22.9,56.7,50.9,76.5,83.1c23.8,38.2,38.8,82.2,43.3,127.4        c0.5,4.6-2.9,8.7-7.5,9.1C259.7,392.9,259.4,392.9,259.1,392.9z"></path></g></g></g><g><g><g><path d="M288,312c-2.2,0-4.3-0.9-5.9-2.4c-1.6-1.6-2.5-3.9-2.4-6.2l0.4-12.4C283.7,179.4,377.4,85.7,489,82.1l12.4-0.4        c2.2-0.2,4.5,0.8,6.2,2.4c1.6,1.6,2.5,3.9,2.4,6.2l-0.4,12.4C506,214.3,412.3,308,300.7,311.6l-12.4,0.4        C288.2,312,288.1,312,288,312z M493,98.6l-3.5,0.1c-102.9,3.3-189.4,89.8-192.7,192.7l-0.1,3.5l3.5-0.1        c102.9-3.3,189.4-89.8,192.7-192.7L493,98.6z"></path></g></g><g><g><path d="M260.5,392.9c-0.7,0-1.3-0.1-2-0.2c-4.5-1.1-7.2-5.6-6.1-10.1c7.3-29.2,19.2-57.3,35.4-83.5        c20.2-32.5,45.9-60.4,76.6-83c3.7-2.7,8.9-1.9,11.7,1.8c2.7,3.7,1.9,8.9-1.8,11.7c-28.9,21.3-53.2,47.7-72.3,78.3        c-15.3,24.8-26.5,51.3-33.4,78.8C267.6,390.4,264.2,392.9,260.5,392.9z"></path></g></g></g></g></g><g><g><path d="M443.9,473.1H67.1c-4,0-7.5-2.9-8.2-6.9c-0.5-3-0.8-6.1-0.8-9.8c0-36.8,30-66.8,66.8-66.8c7,0,13.8,1.1,20.4,3.2     c9.2-26.6,34.3-45,63.1-45c20.6,0,40,9.6,52.6,25.6c10.1-5.9,21.4-8.9,33.3-8.9c24.3,0,46.5,13.3,58.2,34.1     c10.2-5.9,21.8-9.1,33.7-9.1c36.8,0,66.8,30,66.8,66.8c0,3.4-0.2,6.7-0.7,9.7C451.5,470.1,448,473.1,443.9,473.1z M74.8,456.4     h361.3c0,0,0-0.1,0-0.1c0-27.6-22.5-50.1-50.1-50.1c-11.5,0-22.8,4-31.8,11.4c-2.1,1.7-4.9,2.3-7.5,1.6c-2.6-0.7-4.7-2.6-5.6-5.2     c-7.2-19.6-26-32.8-46.9-32.8c-11.1,0-21.6,3.6-30.4,10.4c-1.9,1.5-4.3,2-6.7,1.6c-2.4-0.5-4.4-1.9-5.6-4     c-9.1-15.5-25.2-24.7-43.2-24.7c-24.2,0-44.9,17.3-49.2,41.1c-0.5,2.6-2.1,4.8-4.5,6c-2.4,1.2-5.1,1.2-7.5,0     c-7-3.5-14.5-5.3-22.3-5.3C97.3,406.3,74.8,428.8,74.8,456.4z"></path></g></g><g><g><path d="M469.5,473.1H43.7c-4.6,0-8.3-3.7-8.3-8.3c0-4.6,3.7-8.3,8.3-8.3h425.8c4.6,0,8.3,3.7,8.3,8.3     C477.9,469.3,474.1,473.1,469.5,473.1z"></path></g></g></g></svg>