<svg height='100px' width='100px'  fill="#f8f8f8" xmlns="http://www.w3.org/2000/svg" data-name="Layer 2" viewBox="0 0 100 100" x="0px" y="0px"><title>WEATHER(OUTLINE)</title><path d="M65.11,40a10.79,10.79,0,1,0-21.58,0,2,2,0,0,0,4,0,6.79,6.79,0,1,1,6.79,6.79H11.19a2,2,0,0,0,0,4H54.32A10.8,10.8,0,0,0,65.11,40Z"></path><path d="M64.33,53.25H31.22a2,2,0,0,0,0,4H64.33A4.75,4.75,0,1,1,59.58,62a2,2,0,0,0-4,0,8.75,8.75,0,1,0,8.75-8.75Z"></path><path d="M81.56,32.33a9.26,9.26,0,0,0-9.25,9.25,2,2,0,0,0,4,0,5.25,5.25,0,1,1,5.25,5.25H68a2,2,0,0,0,0,4H81.56a9.25,9.25,0,0,0,0-18.5Z"></path><path d="M11.19,44.33H38.53a2,2,0,0,0,0-4H11.19a2,2,0,0,0,0,4Z"></path><path d="M26.69,58.42H17.44a2,2,0,0,0,0,4h9.25a2,2,0,0,0,0-4Z"></path></svg>